<?xml version="1.0" standalone="no"?><!DOCTYPE svg PUBLIC "-//W3C//DTD SVG 1.1//EN" "http://www.w3.org/Graphics/SVG/1.1/DTD/svg11.dtd"><svg t="1667306329753" class="icon" viewBox="0 0 1024 1024" version="1.1" xmlns="http://www.w3.org/2000/svg" p-id="9923" xmlns:xlink="http://www.w3.org/1999/xlink" width="200" height="200"><path d="M512 40.96C251.904 40.96 40.96 251.904 40.96 512s210.944 471.04 471.04 471.04 471.04-210.944 471.04-471.04S772.096 40.96 512 40.96z m0 612.352a141.312 141.312 0 1 1 141.312-141.312 141.312 141.312 0 0 1-141.312 141.312z" fill="#C15100" p-id="9924"></path><path d="M962.99008 472.33024c-21.504-45.44512-25.64096-77.5168-26.3168-84.35712a13.80352 13.80352 0 0 1 0-2.60096c9.66656-120.832-53.92384-76.86144-66.84672-137.8304a112.20992 112.20992 0 0 0-61.44-78.47936 14.97088 14.97088 0 0 1-6.26688-5.61152c-19.5584-31.51872-45.056-39.6288-56.91392-41.71776A15.33952 15.33952 0 0 1 735.232 115.3024c-23.1424-33.50528-86.75328-33.64864-104.448-32.99328a14.99136 14.99136 0 0 1-8.76544-2.43712c-92.03712-60.02688-63.95904 17.03936-150.34368-13.57824-58.38848-20.70528-92.69248-0.4096-109.07648 15.42144a47.104 47.104 0 0 1-32.0512 12.92288c-23.69536 0.43008-35.57376 11.03872-41.472 20.5824a49.54112 49.54112 0 0 1-24.3712 20.25472C242.62656 143.95392 235.52 156.34432 235.52 156.34432c-34.05824 62.58688-24.33024 19.12832-74.38336 60.14976a124.25216 124.25216 0 0 0-44.6464 75.22304 74.26048 74.26048 0 0 1-17.67424 36.352c-37.90848 42.76224-34.59072 83.39456-28.672 104.73472a43.74528 43.74528 0 0 1-3.70688 31.96928C30.72 532.1728 80.4864 534.7328 70.144 596.7872c-11.14112 66.74432 20.02944 58.85952 28.83584 76.47232s-15.0528 61.17376 25.4976 79.48288c35.24608 15.91296 59.53536 51.2 65.31072 60.23168a15.17568 15.17568 0 0 1 1.88416 4.34176c19.18976 72.51968 67.584 21.97504 102.68672 77.7216 27.70944 44.01152 86.016 48.5376 110.14144 48.41472a29.42976 29.42976 0 0 1 18.432 6.4512c35.36896 28.11904 77.824 16.896 100.92544 7.168a46.55104 46.55104 0 0 1 32.768-1.6384c53.5552 17.89952 110.592-11.20256 136.27392-27.25888a79.17568 79.17568 0 0 1 28.18048-10.52672c39.50592-7.08608 75.9808-47.5136 93.81888-70.41024a67.95264 67.95264 0 0 1 27.36128-20.64384c49.60256-20.84864 61.91104-85.11488 64.45056-105.3696 2.78528-22.24128 64.65536-60.47744 52.14208-120.95488s28.4672-76.4928 4.13696-127.93856z m-373.82144 162.01728c-6.26688 1.39264-36.37248 24.12544-80.52736 34.9184-47.104 11.50976-98.4064-57.83552-114.36032-62.99648-23.40864-7.5776-60.66176-48.35328-32.8704-106.06592a98.44736 98.44736 0 0 0 9.0112-32.19456c1.78176-16.85504 7.92576-41.32864 27.91424-52.06016 31.98976-17.14176 64.2048-62.44352 110.592-62.34112 44.60544 0.12288 92.69248 51.3024 128.73728 65.35168 33.75104 13.18912 15.9744 74.752 20.15232 87.61344s55.93088 100.08576-68.64896 127.77472z" fill="#FF898F" p-id="9925"></path><path d="M380.928 277.17632a374.62016 374.62016 0 0 1 239.16544-36.61824c37.08928 6.59456 56.77056-42.53696 25.088-62.93504a322.8672 322.8672 0 0 0-497.664 258.4576c-1.51552 37.66272 49.99168 49.80736 65.92512 15.6672A374.784 374.784 0 0 1 380.928 277.17632z" fill="#FDC4B1" p-id="9926"></path><path d="M575.73376 698.7776a262.59456 262.59456 0 0 1-169.3696-7.92576c-24.576-9.64608-44.89216 21.38112-25.94816 39.79264a226.28352 226.28352 0 0 0 377.67168-108.78976c6.144-25.66144-27.46368-41.12384-43.13088-19.8656a262.71744 262.71744 0 0 1-139.22304 96.78848z" fill="#FDABA0" opacity=".8" p-id="9927"></path><path d="M341.38112 254.27968L320.18432 329.728a10.89536 10.89536 0 0 0 6.144 12.98432l50.176 21.27872a10.87488 10.87488 0 0 0 13.9264-5.0176l35.77856-69.0176a10.89536 10.89536 0 0 0-3.05152-13.68064c-13.25056-10.24-42.88512-30.04416-71.29088-30.02368a10.97728 10.97728 0 0 0-10.48576 8.02816z" fill="#C3392F" p-id="9928"></path><path d="M337.92 242.91328l-21.21728 75.50976a10.93632 10.93632 0 0 0 6.144 13.0048l50.15552 21.27872a10.91584 10.91584 0 0 0 13.94688-5.03808l35.75808-69.0176a10.87488 10.87488 0 0 0-3.05152-13.68064c-13.25056-10.1376-42.86464-30.02368-71.2704-30.02368a10.9568 10.9568 0 0 0-10.46528 7.96672z" fill="#FFE5D6" p-id="9929"></path><path d="M242.97472 344.6784l-78.35648-3.87072a10.87488 10.87488 0 0 0-11.264 8.97024L143.7696 403.456a10.89536 10.89536 0 0 0 7.9872 12.47232l75.264 19.49696a10.87488 10.87488 0 0 0 12.65664-6.02112c6.92224-15.1552 19.74272-48.47616 13.4144-76.16512a10.9568 10.9568 0 0 0-10.11712-8.56064z" fill="#C3392F" p-id="9930"></path><path d="M236.60544 325.632l-78.336-3.87072a10.89536 10.89536 0 0 0-11.28448 8.97024l-9.58464 53.63712a10.91584 10.91584 0 0 0 8.00768 12.4928l75.264 19.51744a10.93632 10.93632 0 0 0 12.65664-6.02112c6.92224-15.17568 19.72224-48.47616 13.4144-76.16512a10.97728 10.97728 0 0 0-10.1376-8.56064z" fill="#FFE5D6" p-id="9931"></path><path d="M304.14848 626.50368l-74.09664-25.78432a10.89536 10.89536 0 0 0-13.33248 5.4272L192.512 654.92992a10.89536 10.89536 0 0 0 4.096 14.21312l66.72384 39.91552a10.91584 10.91584 0 0 0 13.84448-2.21184c10.91584-12.61568 32.58368-40.96 34.32448-69.30432a10.97728 10.97728 0 0 0-7.35232-11.03872z" fill="#C3392F" p-id="9932"></path><path d="M300.56448 610.73408l-74.09664-25.78432a10.89536 10.89536 0 0 0-13.33248 5.4272L188.8256 639.16032a10.89536 10.89536 0 0 0 4.096 14.21312l66.72384 39.91552a10.91584 10.91584 0 0 0 13.84448-2.21184c10.91584-12.61568 32.58368-40.96 34.304-69.30432a10.93632 10.93632 0 0 0-7.22944-11.03872z" fill="#FFE5D6" p-id="9933"></path><path d="M769.06496 303.65696l-75.44832 21.504a10.91584 10.91584 0 0 0-7.7824 12.12416l8.192 53.88288a10.89536 10.89536 0 0 0 11.59168 9.23648l77.53728-5.71392a10.87488 10.87488 0 0 0 10.0352-9.76896c1.69984-16.5888 3.13344-52.24448-11.75552-76.43136a10.9568 10.9568 0 0 0-12.36992-4.83328z" fill="#C3392F" p-id="9934"></path><path d="M762.40896 294.912l-75.42784 21.504a10.91584 10.91584 0 0 0-7.80288 12.12416l8.192 53.8624a10.91584 10.91584 0 0 0 11.5712 9.25696l77.53728-5.71392a10.89536 10.89536 0 0 0 10.05568-9.76896c1.67936-16.60928 3.11296-52.24448-11.776-76.45184a10.9568 10.9568 0 0 0-12.34944-4.8128z" fill="#FFE5D6" p-id="9935"></path><path d="M729.94816 506.85952l13.02528 77.35296a10.91584 10.91584 0 0 0 11.20256 9.07264l54.43584-2.1504a10.89536 10.89536 0 0 0 10.46528-10.48576l2.88768-77.70112a10.87488 10.87488 0 0 0-8.6016-11.0592c-16.384-3.52256-51.56864-8.86784-77.27104 3.25632a10.91584 10.91584 0 0 0-6.144 11.71456z" fill="#C3392F" p-id="9936"></path><path d="M720.42496 512.49152l13.04576 77.33248a10.87488 10.87488 0 0 0 11.18208 9.07264l54.43584-2.1504a10.91584 10.91584 0 0 0 10.48576-10.48576l2.88768-77.70112a10.91584 10.91584 0 0 0-8.6016-11.0592c-16.384-3.52256-51.58912-8.86784-77.27104 3.25632a10.93632 10.93632 0 0 0-6.16448 11.73504z" fill="#FFE5D6" p-id="9937"></path><path d="M835.584 466.944l4.9152 29.184a30.72 30.72 0 0 0 31.49824 25.57952l18.71872-0.73728a30.72 30.72 0 0 0 29.47072-29.53216l1.10592-30.02368a43.008 43.008 0 0 0-41.71776-44.6464h-1.20832A43.008 43.008 0 0 0 835.584 466.944z" fill="#C3392F" p-id="9938"></path><path d="M827.392 456.704l4.9152 29.184a30.72 30.72 0 0 0 31.49824 25.57952l18.71872-0.73728a30.72 30.72 0 0 0 29.47072-29.53216l1.10592-30.02368a43.008 43.008 0 0 0-41.71776-44.6464h-1.20832A43.008 43.008 0 0 0 827.392 456.704z" fill="#FFE5D6" p-id="9939"></path><path d="M592.34304 668.2624l9.99424 77.2096a11.32544 11.32544 0 0 0 9.95328 10.0352l49.52064 3.3792a9.27744 9.27744 0 0 0 9.74848-9.23648L676.0448 673.792a11.73504 11.73504 0 0 0-7.55712-11.71456c-14.72512-5.09952-46.65344-13.9264-70.26688-4.62848a10.01472 10.01472 0 0 0-5.87776 10.81344z" fill="#C3392F" p-id="9940"></path><path d="M582.61504 654.47936l9.99424 77.2096a11.3664 11.3664 0 0 0 9.95328 10.05568l49.52064 3.3792a9.3184 9.3184 0 0 0 9.76896-9.23648l4.46464-75.93984a11.75552 11.75552 0 0 0-7.53664-11.73504c-14.72512-5.09952-46.65344-13.90592-70.28736-4.608a10.01472 10.01472 0 0 0-5.87776 10.87488z" fill="#FFE5D6" p-id="9941"></path><path d="M841.46176 441.15968a29.63456 23.22432 0 1 0 59.26912 0 29.63456 23.22432 0 1 0-59.26912 0Z" fill="#FF7477" p-id="9942"></path><path d="M453.28384 713.4208L423.936 710.53312a30.72 30.72 0 0 0-32.93184 23.67488l-4.1984 18.26816A30.72 30.72 0 0 0 407.552 788.64384l28.672 8.94976a43.008 43.008 0 0 0 54.00576-28.5696c0.12288-0.38912 0.22528-0.77824 0.34816-1.16736a43.008 43.008 0 0 0-37.29408-54.43584z" fill="#C3392F" p-id="9943"></path><path d="M446.8736 702.0544l-29.45024-2.90816A30.72 30.72 0 0 0 384.49152 722.944l-4.096 18.26816a30.72 30.72 0 0 0 20.76672 36.16768l28.672 8.94976A43.008 43.008 0 0 0 483.77856 757.76c0.12288-0.38912 0.22528-0.77824 0.34816-1.16736a43.008 43.008 0 0 0-37.25312-54.53824z" fill="#FFE5D6" p-id="9944"></path><path d="M442.595562 776.945236a23.22432 29.63456 15.19 1 0 15.529739-57.198389 23.22432 29.63456 15.19 1 0-15.529739 57.198389Z" fill="#FF7477" p-id="9945"></path><path d="M561.33632 246.74304l-29.4912 2.62144a30.72 30.72 0 0 0-27.93472 29.40928l-0.7168 18.7392a30.72 30.72 0 0 0 27.2384 31.66208l29.85984 3.46112a43.008 43.008 0 0 0 47.73888-38.13376l0.12288-1.20832a43.008 43.008 0 0 0-46.81728-46.55104z" fill="#C3392F" p-id="9946"></path><path d="M552.96 236.76928l-29.47072 2.62144a30.72 30.72 0 0 0-27.9552 29.40928l-0.7168 18.71872a30.72 30.72 0 0 0 27.15648 31.68256l29.83936 3.44064a43.008 43.008 0 0 0 47.75936-38.11328l0.12288-1.20832A43.008 43.008 0 0 0 552.96 236.76928z" fill="#FFE5D6" p-id="9947"></path><path d="M562.63275 311.133842a23.22432 29.63456 4.47 1 0 4.619263-59.08884 23.22432 29.63456 4.47 1 0-4.619263 59.08884Z" fill="#FF7477" p-id="9948"></path><path d="M260.608 539.56608l20.80768 21.07392a30.72 30.72 0 0 0 40.448 2.84672l14.90944-11.3664a30.72 30.72 0 0 0 7.14752-41.10336l-16.384-25.23136a43.008 43.008 0 0 0-59.8016-12.55424l-1.00352 0.67584a43.008 43.008 0 0 0-6.12352 65.65888z" fill="#C3392F" p-id="9949"></path><path d="M256.512 525.08672l20.80768 21.07392a30.72 30.72 0 0 0 40.448 2.82624l14.90944-11.3664a30.72 30.72 0 0 0 7.14752-41.08288l-16.384-25.23136a43.008 43.008 0 0 0-59.8016-12.55424l-1.00352 0.67584a43.008 43.008 0 0 0-6.12352 65.65888z" fill="#FFE5D6" p-id="9950"></path><path d="M259.202768 504.312389a23.22432 29.63456 54.94 1 0 48.514794-34.046194 23.22432 29.63456 54.94 1 0-48.514794 34.046194Z" fill="#FF7477" p-id="9951"></path><path d="M211.171449 406.244477a19.7632 37.31456 14.55 1 0 18.748684-72.235672 19.7632 37.31456 14.55 1 0-18.748684 72.235672Z" fill="#FF7477" p-id="9952"></path><path d="M639.97952 162.59072l-0.63488 78.4384a10.91584 10.91584 0 0 0 9.4208 10.89536l53.98528 7.35232a10.89536 10.89536 0 0 0 12.14464-8.4992l16.384-76.00128a10.89536 10.89536 0 0 0-6.53312-12.288c-15.44192-6.30784-49.2544-17.73568-76.65664-10.24a10.97728 10.97728 0 0 0-8.11008 10.3424z" fill="#C3392F" p-id="9953"></path><path d="M630.8864 146.0224l-0.65536 78.4384a10.93632 10.93632 0 0 0 9.44128 10.91584l53.98528 7.35232a10.89536 10.89536 0 0 0 12.14464-8.4992l16.384-76.00128a10.91584 10.91584 0 0 0-6.53312-12.3904c-15.44192-6.30784-49.2544-17.73568-76.65664-10.24a10.93632 10.93632 0 0 0-8.11008 10.42432z" fill="#FFE5D6" p-id="9954"></path><path d="M671.830502 179.603551a37.31456 19.7632 12.19 1 0 8.346165-38.635189 37.31456 19.7632 12.19 1 0-8.346165 38.635189Z" fill="#FF7477" p-id="9955"></path><path d="M270.58176 761.09824l-0.65536 78.4384a10.89536 10.89536 0 0 0 9.44128 10.89536l53.98528 7.3728a10.87488 10.87488 0 0 0 12.12416-8.4992l16.384-76.00128a10.91584 10.91584 0 0 0-6.5536-12.41088c-15.44192-6.28736-49.152-17.7152-76.65664-10.24a10.9568 10.9568 0 0 0-8.06912 10.4448z" fill="#C3392F" p-id="9956"></path><path d="M261.46816 744.5504l-0.63488 78.4384a10.89536 10.89536 0 0 0 9.4208 10.89536l53.98528 7.3728a10.93632 10.93632 0 0 0 12.14464-8.51968l16.384-75.9808a10.91584 10.91584 0 0 0-6.53312-12.41088c-15.44192-6.30784-49.2544-17.7152-76.65664-10.24a10.97728 10.97728 0 0 0-8.11008 10.4448z" fill="#FFE5D6" p-id="9957"></path><path d="M303.984502 776.460719a37.31456 19.7632 12.1 1 0 8.285467-38.648251 37.31456 19.7632 12.1 1 0-8.285467 38.648251Z" fill="#FF7477" p-id="9958"></path><path d="M606.24896 868.57728m-51.2 0a51.2 51.2 0 1 0 102.4 0 51.2 51.2 0 1 0-102.4 0Z" fill="#C3392F" p-id="9959"></path><path d="M599.83872 856.71936m-51.2 0a51.2 51.2 0 1 0 102.4 0 51.2 51.2 0 1 0-102.4 0Z" fill="#FFE5D6" p-id="9960"></path><path d="M582.49216 871.48544c-9.3184-11.776-4.096-31.39584 11.63264-43.86816s42.57792-4.096 45.34272-1.24928 4.096 31.39584-11.63264 43.84768-35.96288 13.02528-45.34272 1.26976z" fill="#FF7477" p-id="9961"></path><path d="M781.27104 693.37088m-51.2 0a51.2 51.2 0 1 0 102.4 0 51.2 51.2 0 1 0-102.4 0Z" fill="#C3392F" p-id="9962"></path><path d="M773.81632 677.70368m-51.2 0a51.2 51.2 0 1 0 102.4 0 51.2 51.2 0 1 0-102.4 0Z" fill="#FFE5D6" p-id="9963"></path><path d="M754.19648 692.46976c-9.29792-11.776-4.096-31.39584 11.63264-43.86816s42.5984-4.096 45.34272-1.24928 4.096 31.39584-11.61216 43.84768-36.0448 13.02528-45.3632 1.26976z" fill="#FF7477" p-id="9964"></path></svg>